<svg width="26" height="25" xmlns="http://www.w3.org/2000/svg" xmlns:xlink="http://www.w3.org/1999/xlink" xmlns:svgjs="http://svgjs.com/svgjs" viewBox="0 0.185 26 24.629" fill="#fff"><svg xmlns="http://www.w3.org/2000/svg" width="26" height="25" viewBox="0 1 25.336 24"><path paint-order="stroke fill markers" fill-rule="evenodd" d="M9.812 5.33c-2.12.399-3.609 1.935-4.468 4.606a12.596 12.596 0 0 0-.645 3.916c0 .154.007.284.023.392.015.107.038.345.069.713h5.02V25H0v-9.26c0-4.545.906-8.045 2.718-10.502C4.53 2.78 6.894 1.368 9.812 1v4.33zm15.524 0c-1.69.276-2.971 1.228-3.847 2.856-.875 1.628-1.312 3.501-1.312 5.62 0 .184.007.368.023.553.015.184.053.384.115.598h5.02V25h-9.857v-9.26c0-3.654.768-6.917 2.303-9.788C19.317 3.08 21.835 1.43 25.336 1v4.33z"/></svg></svg>