<svg xmlns="http://www.w3.org/2000/svg" viewBox="0 0 217.15 34.17"><defs><style>.cls-1{fill:#046543;}</style></defs><title>Asset 17</title><g id="Layer_2" data-name="Layer 2"><g id="Layer_1-2" data-name="Layer 1"><path class="cls-1" d="M36,19.25c-3.08.45-3.84,1.43-3.84,4.82v7a22.7,22.7,0,0,0-4,1.12,34,34,0,0,1-9.65,2C7.41,34.17,0,27.42,0,17.28S7.77.4,19.47.4c4.25,0,6.21,1.65,8.36,1.65A2.12,2.12,0,0,0,30.1.63h.09l1.25,12h-.09C28.76,4.6,25.06.94,19.47.94s-9.2,6.52-9.2,16.34,3.35,16.35,8.31,16.35a7.07,7.07,0,0,0,4.24-1.83V25.41c0-4.33-1-5.58-5.18-6.16v-.09H36Z"/><path class="cls-1" d="M121.39,13l-.09,0c-3.52-9.11-6-11.61-12.5-11.74V28.36c0,3.71.85,4.78,4.73,5.27v.09H94.68v-.09c3.89-.49,4.74-1.56,4.74-5.27V1.3c-6.48.13-9,2.63-12.51,11.74l-.09,0L90.53,0h.09c2.64.67,4.69.85,10.27.85h6.43C112.91.85,115,.67,117.6,0h.09Z"/><path class="cls-1" d="M165,6.21V28.36c0,3.71.85,4.78,4.29,5.27v.09h-18v-.09c3.44-.49,4.29-1.56,4.29-5.27V17.2H145.33V28.36c0,3.71.85,4.78,4.29,5.27v.09h-18v-.09c3.43-.49,4.28-1.56,4.28-5.27V6.21c0-3.71-.85-4.78-4.28-5.27V.85h18V.94c-3.44.49-4.29,1.56-4.29,5.27V16.75h10.28V6.21c0-3.71-.85-4.78-4.29-5.27V.85h18V.94C165.83,1.43,165,2.5,165,6.21Z"/><path class="cls-1" d="M76.51,29,64.36.4H63.29A38.24,38.24,0,0,1,56,4.65l1.16,2.81-8,19.83c-1.88,4.73-2.91,5.9-5.67,6.34v.09H55.78v-.09c-4.46-.31-6.25-1.2-6.25-4.11,0-1.29.67-3.21,1.83-6.16h0l.33-.82,6-15.07,5.77,14.69h0L64,23.36l1.35,3.39a9.72,9.72,0,0,1,.94,3.49c0,2.19-1.43,2.95-5.45,3.39v.09H81.38v-.09C78.65,33.59,78.07,32.69,76.51,29Z"/><path class="cls-1" d="M212.28,29,200.13.4h-1.07a37.94,37.94,0,0,1-7.28,4.25l1.16,2.81L185,27.29c-1.87,4.73-2.9,5.9-5.67,6.34v.09h12.24v-.09c-4.47-.31-6.26-1.2-6.26-4.11,0-1.29.68-3.21,1.84-6.16l0-.06.2-.48h0l6.12-15.36,5.76,14.69h0l.55,1.39h0l1.27,3.21a9.72,9.72,0,0,1,.94,3.49c0,2.19-1.43,2.95-5.45,3.39v.09h20.59v-.09C214.43,33.59,213.85,32.69,212.28,29Z"/></g></g></svg>