<svg xmlns="http://www.w3.org/2000/svg" viewBox="0 0 21.36 19.56"><defs><style>.cls-1{fill:#046543;}</style></defs><title>Asset 16</title><g id="Layer_2" data-name="Layer 2"><g id="Layer_1-2" data-name="Layer 1"><path class="cls-1" d="M10.35,8.89a1,1,0,0,1-.3,0H2.3a1.79,1.79,0,0,1-1.21-.29A1,1,0,0,1,1,7.31L2.1,5.55l2.17-3.5.39-.63a1.43,1.43,0,0,1,.4-.48A1.4,1.4,0,0,1,5.82.8h9a1.5,1.5,0,0,1,.7.11,1.59,1.59,0,0,1,.51.55l4.15,6.32a1.37,1.37,0,0,1,.32,1,1.33,1.33,0,0,1-.43.65l-8.85,8.85a1.47,1.47,0,0,1-.81.51,1.51,1.51,0,0,1-1.11-.59L6.24,15.05c-.18-.18-.37-.45-.23-.66s.59-.05.82.18l3.25,3.26a.39.39,0,0,0,.26.15.41.41,0,0,0,.29-.16l9-9a.42.42,0,0,0,.15-.23.48.48,0,0,0-.1-.28L15.52,1.94a1,1,0,0,0-.25-.29,1,1,0,0,0-.51-.1H5.89a.88.88,0,0,0-.42.08,1,1,0,0,0-.27.3L1.62,7.74A.4.4,0,0,0,1.54,8c0,.16.24.2.41.2h8.16c.26,0,.61.07.64.33S10.58,8.84,10.35,8.89Z"/><path class="cls-1" d="M10.37,19.56a2.34,2.34,0,0,1-1.59-.83L5.67,15.61A1.25,1.25,0,0,1,5.34,14a1.1,1.1,0,0,1,.79-.48A1.72,1.72,0,0,1,7.4,14l2.95,3,8.49-8.49-4-6.11,0,0h-9l-3.1,5h7.33a1.28,1.28,0,0,1,1.43,1,1.17,1.17,0,0,1-1,1.27h0a1.91,1.91,0,0,1-.48.06H2.3A2.54,2.54,0,0,1,.56,9.24,1.77,1.77,0,0,1,.34,6.89L4,1A2.08,2.08,0,0,1,4.64.27,2.09,2.09,0,0,1,5.82,0h9a2.27,2.27,0,0,1,1.07.2,2.32,2.32,0,0,1,.81.82l4.14,6.32a2,2,0,0,1,.44,1.57A2.06,2.06,0,0,1,20.68,10l-8.84,8.85a2.2,2.2,0,0,1-1.29.74Z"/></g></g></svg>