<?xml version="1.0" encoding="UTF-8"?>
<svg width="200px" height="13px" viewBox="0 0 200 13" version="1.1" xmlns="http://www.w3.org/2000/svg" xmlns:xlink="http://www.w3.org/1999/xlink">
    <!-- Generator: sketchtool 55.2 (78181) - https://sketchapp.com -->
    <title>D02BA2DA-9F21-4CFD-ACDB-772C3F45F9E9</title>
    <desc>Created with sketchtool.</desc>
    <g id="Website" stroke="none" stroke-width="1" fill="none" fill-rule="evenodd">
        <g id="1-Home-page" transform="translate(-858.000000, -124.000000)" fill="#0D6949" fill-rule="nonzero">
            <path d="M866.074219,130.727539 C866.074219,131.209963 865.951499,131.604572 865.706055,131.911377 C865.460611,132.218182 865.149579,132.450927 864.772949,132.609619 C864.39632,132.768311 864.028159,132.873047 863.668457,132.923828 C863.308755,132.97461 862.961753,133 862.627441,133 L858.311035,133 L858.311035,132.416016 C858.679201,132.416016 858.95109,132.37793 859.126709,132.301758 C859.302328,132.225586 859.416585,132.117676 859.469482,131.978027 C859.52238,131.838378 859.548828,131.645835 859.548828,131.400391 L859.548828,125.966797 C859.548828,125.585936 859.470541,125.321453 859.313965,125.17334 C859.157389,125.025227 858.823082,124.951172 858.311035,124.951172 L858.311035,124.354492 C858.924645,124.341797 859.508624,124.329102 860.062988,124.316406 C860.617353,124.303711 861.073322,124.294189 861.430908,124.287842 C861.788495,124.281494 862.039225,124.27832 862.183105,124.27832 L862.417969,124.27832 C862.858075,124.27832 863.318276,124.323811 863.798584,124.414795 C864.278892,124.505778 864.716876,124.712075 865.112549,125.033691 C865.508221,125.355308 865.706055,125.818682 865.706055,126.423828 C865.706055,126.87663 865.545249,127.265949 865.223633,127.591797 C864.902017,127.917645 864.375166,128.18636 863.643066,128.397949 C864.142418,128.486817 864.577228,128.635985 864.94751,128.845459 C865.317792,129.054933 865.598144,129.320474 865.788574,129.64209 C865.979005,129.963706 866.074219,130.325519 866.074219,130.727539 Z M863.890625,126.474609 C863.890625,126.178384 863.819744,125.919191 863.677979,125.697021 C863.536213,125.474852 863.326743,125.301352 863.049561,125.176514 C862.772378,125.051676 862.432782,124.989258 862.030762,124.989258 L861.364258,124.989258 L861.364258,128.074219 L861.884766,128.074219 C862.566084,128.074219 863.070718,127.93034 863.398682,127.642578 C863.726646,127.354816 863.890625,126.965497 863.890625,126.474609 Z M864.125488,130.619629 C864.125488,130.035642 863.974204,129.581789 863.671631,129.258057 C863.369058,128.934325 862.942711,128.772461 862.392578,128.772461 L861.364258,128.772461 L861.364258,131.013184 C861.364258,131.326336 861.383301,131.570719 861.421387,131.746338 C861.459473,131.921957 861.554687,132.057373 861.707031,132.152588 C861.859376,132.247803 862.100584,132.29541 862.430664,132.29541 C862.87077,132.29541 863.263263,132.162111 863.608154,131.895508 C863.953045,131.628905 864.125488,131.203616 864.125488,130.619629 Z M877.272461,128.385254 C877.090494,128.410645 876.948731,128.457194 876.847168,128.524902 C876.745605,128.592611 876.653565,128.697346 876.571045,128.839111 C876.488525,128.980876 876.341472,129.267576 876.129883,129.699219 L874.27002,133.558594 C873.855304,134.409184 873.572836,134.975178 873.422607,135.256592 C873.272379,135.538006 873.102052,135.76123 872.911621,135.92627 C872.72119,136.091309 872.484214,136.173828 872.200684,136.173828 C872.006021,136.173828 871.836752,136.114584 871.692871,135.996094 C871.54899,135.877604 871.477051,135.727377 871.477051,135.54541 C871.477051,135.287271 871.564859,135.100017 871.740479,134.983643 C871.916098,134.867268 872.143553,134.768881 872.422852,134.688477 C872.799481,134.57845 873.087239,134.377443 873.286133,134.085449 C873.485027,133.793456 873.656412,133.47396 873.800293,133.126953 L871.381836,128.867676 C871.267578,128.660318 871.1639,128.528076 871.070801,128.470947 C870.977701,128.413818 870.848634,128.385254 870.683594,128.385254 L870.683594,127.80127 L873.762207,127.80127 L873.762207,128.385254 L873.56543,128.385254 C873.273436,128.385254 873.127441,128.455077 873.127441,128.594727 C873.127441,128.679362 873.186686,128.825357 873.305176,129.032715 L874.644531,131.387695 L875.634766,129.375488 C875.774415,129.087726 875.844238,128.890951 875.844238,128.785156 C875.844238,128.658202 875.78182,128.559815 875.656982,128.48999 C875.532145,128.420166 875.385092,128.385254 875.21582,128.385254 L875.21582,127.80127 L877.272461,127.80127 L877.272461,128.385254 Z M898.088379,128.772461 C898.088379,129.394534 897.982586,129.956296 897.770996,130.457764 C897.559406,130.959231 897.28646,131.377114 896.952148,131.711426 C896.617837,132.045737 896.260256,132.297525 895.879395,132.466797 C895.075354,132.822267 894.091477,133 892.927734,133 L888.998535,133 L888.998535,132.416016 C889.362469,132.416016 889.637532,132.381104 889.82373,132.311279 C890.009929,132.241455 890.131592,132.136719 890.188721,131.99707 C890.24585,131.857421 890.274414,131.65853 890.274414,131.400391 L890.274414,125.966797 C890.274414,125.594399 890.198243,125.332032 890.045898,125.179688 C889.893554,125.027343 889.544436,124.951172 888.998535,124.951172 L888.998535,124.354492 L890.845703,124.316406 C890.90918,124.316406 891.167315,124.312175 891.620117,124.303711 C892.072919,124.295247 892.335286,124.291016 892.407227,124.291016 C893.113936,124.291016 893.713783,124.329101 894.206787,124.405273 C894.699791,124.481446 895.151528,124.604166 895.562012,124.773438 C895.938641,124.925782 896.285643,125.138426 896.603027,125.411377 C896.920412,125.684328 897.188069,125.99536 897.406006,126.344482 C897.623943,126.693605 897.792154,127.073403 897.910645,127.483887 C898.029135,127.894371 898.088379,128.323891 898.088379,128.772461 Z M896.031738,128.734375 C896.031738,127.841467 895.861411,127.093509 895.520752,126.490479 C895.180093,125.887448 894.717776,125.469565 894.133789,125.236816 C893.879882,125.135253 893.610109,125.07072 893.324463,125.043213 C893.038817,125.015706 892.629397,125.001953 892.096191,125.001953 L892.096191,131.05127 C892.096191,131.398276 892.113118,131.651122 892.146973,131.809814 C892.180827,131.968507 892.280273,132.089111 892.445312,132.171631 C892.610352,132.254151 892.866372,132.29541 893.213379,132.29541 C894.241704,132.29541 894.968504,131.935713 895.393799,131.216309 C895.819094,130.496904 896.031738,129.669601 896.031738,128.734375 Z M910.721191,126.684082 C910.721191,127.390791 910.503257,127.927163 910.067383,128.293213 C909.631508,128.659263 909.118411,128.894124 908.528076,128.997803 C907.937741,129.101482 907.316735,129.15332 906.665039,129.15332 L906.09375,129.15332 L906.09375,131.400391 C906.09375,131.654298 906.121256,131.851074 906.17627,131.990723 C906.231283,132.130372 906.349771,132.236165 906.531738,132.308105 C906.713705,132.380046 906.990884,132.416016 907.363281,132.416016 L907.363281,133 L903.03418,133 L903.03418,132.416016 C903.402346,132.416016 903.674234,132.37793 903.849854,132.301758 C904.025473,132.225586 904.13973,132.117676 904.192627,131.978027 C904.245524,131.838378 904.271973,131.645835 904.271973,131.400391 L904.271973,125.966797 C904.271973,125.721353 904.246582,125.529867 904.195801,125.392334 C904.145019,125.254801 904.030763,125.146892 903.853027,125.068604 C903.675292,124.990315 903.402346,124.951172 903.03418,124.951172 L903.03418,124.354492 L905.490723,124.291016 C905.617676,124.286784 905.756266,124.28361 905.906494,124.281494 C906.056723,124.279378 906.176269,124.277262 906.265137,124.275146 C906.354004,124.273031 906.485188,124.271973 906.658691,124.271973 C906.874513,124.271973 907.035318,124.274089 907.141113,124.27832 C907.644697,124.299479 908.129229,124.348144 908.594727,124.424316 C909.060224,124.500489 909.531003,124.715249 910.00708,125.068604 C910.483157,125.421958 910.721191,125.960446 910.721191,126.684082 Z M908.766113,126.696777 C908.766113,126.011227 908.566164,125.553142 908.16626,125.32251 C907.766355,125.091877 907.240563,124.976562 906.588867,124.976562 C906.470377,124.976562 906.30534,124.980794 906.09375,124.989258 L906.09375,128.44873 L906.677734,128.44873 C907.299808,128.44873 907.803383,128.341879 908.188477,128.128174 C908.57357,127.914468 908.766113,127.437341 908.766113,126.696777 Z M931.175293,133 L927.119141,133 L927.119141,132.416016 C927.461916,132.416016 927.711588,132.391683 927.868164,132.343018 C928.02474,132.294352 928.103027,132.179037 928.103027,131.99707 C928.103027,131.870117 928.077637,131.741049 928.026855,131.609863 L927.620605,130.594238 L924.827637,130.594238 L924.618164,131.152832 C924.499674,131.465985 924.44043,131.692382 924.44043,131.832031 C924.44043,132.085939 924.538817,132.246744 924.735596,132.314453 C924.932374,132.382162 925.161945,132.416016 925.424316,132.416016 L925.424316,133 L922.459961,133 L922.459961,132.416016 C922.696941,132.416016 922.897948,132.371582 923.062988,132.282715 C923.228028,132.193847 923.38566,132.025636 923.535889,131.778076 C923.686117,131.530516 923.847981,131.180341 924.021484,130.727539 L926.503418,124.227539 L927.106445,124.227539 L929.728027,130.930664 C929.918458,131.404625 930.058105,131.725178 930.146973,131.892334 C930.23584,132.05949 930.35856,132.188557 930.515137,132.279541 C930.671713,132.370525 930.891763,132.416016 931.175293,132.416016 L931.175293,133 Z M927.39209,129.972168 L926.205078,126.969727 L925.075195,129.972168 L927.39209,129.972168 Z M942.506836,130.359375 C942.506836,130.765627 942.432781,131.145425 942.284668,131.498779 C942.136555,131.852134 941.928143,132.157876 941.659424,132.416016 C941.390705,132.674155 941.083905,132.87093 940.739014,133.006348 C940.394123,133.141765 940.029136,133.209473 939.644043,133.209473 C939.191241,133.209473 938.801922,133.121664 938.476074,132.946045 C938.150226,132.770426 937.881511,132.545086 937.669922,132.27002 C937.280597,132.659344 936.999187,132.972492 936.825684,133.209473 L936.330566,133.209473 L936.330566,126.17627 C936.330566,125.935057 936.302002,125.758383 936.244873,125.64624 C936.187744,125.534098 936.09253,125.462158 935.959229,125.43042 C935.825927,125.398681 935.61963,125.378581 935.340332,125.370117 L935.340332,124.798828 L937.968262,124.240234 L937.968262,128.347168 C938.184083,128.144042 938.434813,127.967367 938.720459,127.817139 C939.006105,127.66691 939.379555,127.591797 939.84082,127.591797 C940.272463,127.591797 940.656492,127.670084 940.99292,127.82666 C941.329347,127.983236 941.609699,128.194823 941.833984,128.461426 C942.058269,128.728029 942.226481,129.02425 942.338623,129.350098 C942.450766,129.675946 942.506836,130.012368 942.506836,130.359375 Z M940.748535,130.308594 C940.748535,129.77962 940.660727,129.312014 940.485107,128.905762 C940.309488,128.49951 939.963544,128.296387 939.447266,128.296387 C939.261067,128.296387 939.078045,128.333414 938.898193,128.407471 C938.718342,128.481527 938.551189,128.582031 938.396729,128.708984 C938.242268,128.835938 938.099447,128.984049 937.968262,129.15332 L937.968262,131.736816 C938.222169,132.066896 938.475015,132.277425 938.726807,132.368408 C938.978598,132.459392 939.201822,132.504883 939.396484,132.504883 C939.751955,132.504883 940.031249,132.387452 940.234375,132.152588 C940.437501,131.917723 940.573974,131.637371 940.643799,131.311523 C940.713623,130.985675 940.748535,130.651369 940.748535,130.308594 Z M954.371582,133 L951.108887,133 L951.108887,132.416016 C951.40088,132.416016 951.601887,132.364177 951.711914,132.260498 C951.821941,132.156819 951.876953,132.005535 951.876953,131.806641 L951.876953,129.673828 C951.876953,129.462239 951.8632,129.271811 951.835693,129.102539 C951.808187,128.933267 951.735189,128.779867 951.616699,128.642334 C951.498209,128.504801 951.316245,128.436035 951.070801,128.436035 C950.871907,128.436035 950.669842,128.48999 950.4646,128.5979 C950.259358,128.705811 950.101726,128.846516 949.991699,129.02002 C949.873209,129.214682 949.798096,129.401936 949.766357,129.581787 C949.734619,129.761638 949.71875,129.978514 949.71875,130.232422 L949.71875,131.324219 C949.71875,131.620444 949.730387,131.83732 949.753662,131.974854 C949.776937,132.112387 949.842529,132.220296 949.950439,132.298584 C950.05835,132.376872 950.237141,132.416016 950.486816,132.416016 L950.486816,133 L947.160645,133 L947.160645,132.416016 C947.444175,132.416016 947.652587,132.386394 947.785889,132.327148 C947.91919,132.267903 948.001709,132.180095 948.033447,132.063721 C948.065186,131.947346 948.081055,131.755861 948.081055,131.489258 L948.081055,126.163574 C948.081055,125.84619 948.030274,125.633545 947.928711,125.525635 C947.827148,125.417724 947.571128,125.361654 947.160645,125.357422 L947.160645,124.786133 L949.71875,124.240234 L949.71875,128.524902 C949.968426,128.262531 950.227619,128.041423 950.496338,127.861572 C950.765057,127.681721 951.138507,127.591797 951.616699,127.591797 C951.836752,127.591797 952.056802,127.623535 952.276855,127.687012 C952.496909,127.750489 952.694742,127.843587 952.870361,127.966309 C953.045981,128.089031 953.17399,128.228678 953.254395,128.385254 C953.427898,128.694175 953.514648,129.096189 953.514648,129.591309 L953.514648,131.489258 C953.514648,131.844728 953.56014,132.088053 953.651123,132.219238 C953.742107,132.350424 953.982257,132.416016 954.371582,132.416016 L954.371582,133 Z M966.058594,132.961914 C965.935872,132.970378 965.722169,132.984131 965.41748,133.003174 C965.112791,133.022217 964.771079,133.049723 964.392334,133.085693 C964.013589,133.121664 963.709962,133.162923 963.481445,133.209473 L963.481445,132.282715 C962.935544,132.90902 962.281742,133.222168 961.52002,133.222168 C960.965655,133.222168 960.555177,133.10368 960.288574,132.866699 C960.021971,132.629719 959.856934,132.36841 959.793457,132.082764 C959.72998,131.797118 959.698242,131.491375 959.698242,131.165527 L959.698242,129.292969 C959.698242,129.043293 959.683431,128.860271 959.653809,128.743896 C959.624186,128.627522 959.545899,128.538656 959.418945,128.477295 C959.291992,128.415934 959.082521,128.385254 958.790527,128.385254 L958.790527,127.80127 L961.335938,127.80127 L961.335938,131.298828 C961.335938,132.018233 961.613116,132.37793 962.16748,132.37793 C962.484865,132.37793 962.75358,132.264731 962.973633,132.03833 C963.193686,131.811929 963.362955,131.595053 963.481445,131.387695 L963.481445,129.292969 C963.481445,129.030598 963.465576,128.842286 963.433838,128.728027 C963.402099,128.613769 963.320639,128.528076 963.189453,128.470947 C963.058268,128.413818 962.840334,128.385254 962.535645,128.385254 L962.535645,127.80127 L965.119141,127.80127 L965.119141,131.622559 C965.119141,131.821453 965.138183,131.969563 965.17627,132.066895 C965.214356,132.164226 965.301106,132.239339 965.436523,132.292236 C965.571941,132.345134 965.779295,132.373698 966.058594,132.37793 L966.058594,132.961914 Z M976.126953,131.489258 C976.126953,131.853192 976.017986,132.164224 975.800049,132.422363 C975.582112,132.680503 975.283775,132.87622 974.905029,133.009521 C974.526284,133.142823 974.089358,133.209473 973.594238,133.209473 C973.259927,133.209473 972.923504,133.176677 972.584961,133.111084 C972.246418,133.045491 971.950197,132.947104 971.696289,132.815918 L971.44873,133.171387 L970.953613,133.171387 L970.890137,131.520996 L971.42334,131.520996 C971.516439,131.804526 971.730142,132.059488 972.064453,132.285889 C972.398765,132.51229 972.883298,132.625488 973.518066,132.625488 C973.678875,132.625488 973.852375,132.613851 974.038574,132.590576 C974.224773,132.567301 974.403564,132.502767 974.574951,132.396973 C974.746339,132.291178 974.832031,132.128256 974.832031,131.908203 C974.832031,131.717772 974.744223,131.579183 974.568604,131.492432 C974.392984,131.40568 974.063967,131.300945 973.581543,131.178223 C972.997556,131.03011 972.51937,130.889405 972.146973,130.756104 C971.774575,130.622802 971.459311,130.431316 971.201172,130.181641 C970.943033,129.931965 970.813965,129.610354 970.813965,129.216797 C970.813965,128.717445 971.043536,128.321779 971.502686,128.029785 C971.961835,127.737792 972.563798,127.591797 973.308594,127.591797 C973.774091,127.591797 974.146483,127.629882 974.425781,127.706055 C974.70508,127.782227 974.93994,127.864746 975.130371,127.953613 L975.282715,127.629883 L975.790527,127.629883 L975.790527,129.102539 L975.27002,129.102539 C975.22347,128.929036 975.117677,128.770346 974.952637,128.626465 C974.787597,128.482584 974.568605,128.371501 974.295654,128.293213 C974.022704,128.214925 973.706382,128.175781 973.34668,128.175781 C973.050454,128.175781 972.755291,128.207519 972.461182,128.270996 C972.167072,128.334473 972.02002,128.484699 972.02002,128.72168 C972.02002,128.819011 972.048584,128.899414 972.105713,128.962891 C972.162842,129.026368 972.26123,129.085612 972.400879,129.140625 C972.540528,129.195638 972.785968,129.267578 973.137207,129.356445 C973.488446,129.445313 973.697916,129.49821 973.765625,129.515137 C974.455407,129.68864 975.021401,129.902342 975.463623,130.15625 C975.905845,130.410158 976.126953,130.854489 976.126953,131.489258 Z M987.902832,133 L984.640137,133 L984.640137,132.416016 C984.93213,132.416016 985.133137,132.364177 985.243164,132.260498 C985.353191,132.156819 985.408203,132.005535 985.408203,131.806641 L985.408203,129.673828 C985.408203,129.462239 985.39445,129.271811 985.366943,129.102539 C985.339437,128.933267 985.266439,128.779867 985.147949,128.642334 C985.029459,128.504801 984.847495,128.436035 984.602051,128.436035 C984.403157,128.436035 984.201092,128.48999 983.99585,128.5979 C983.790608,128.705811 983.632976,128.846516 983.522949,129.02002 C983.404459,129.214682 983.329346,129.401936 983.297607,129.581787 C983.265869,129.761638 983.25,129.978514 983.25,130.232422 L983.25,131.324219 C983.25,131.620444 983.261637,131.83732 983.284912,131.974854 C983.308187,132.112387 983.373779,132.220296 983.481689,132.298584 C983.5896,132.376872 983.768391,132.416016 984.018066,132.416016 L984.018066,133 L980.691895,133 L980.691895,132.416016 C980.975425,132.416016 981.183837,132.386394 981.317139,132.327148 C981.45044,132.267903 981.532959,132.180095 981.564697,132.063721 C981.596436,131.947346 981.612305,131.755861 981.612305,131.489258 L981.612305,126.163574 C981.612305,125.84619 981.561524,125.633545 981.459961,125.525635 C981.358398,125.417724 981.102378,125.361654 980.691895,125.357422 L980.691895,124.786133 L983.25,124.240234 L983.25,128.524902 C983.499676,128.262531 983.758869,128.041423 984.027588,127.861572 C984.296307,127.681721 984.669757,127.591797 985.147949,127.591797 C985.368002,127.591797 985.588052,127.623535 985.808105,127.687012 C986.028159,127.750489 986.225992,127.843587 986.401611,127.966309 C986.577231,128.089031 986.70524,128.228678 986.785645,128.385254 C986.959148,128.694175 987.045898,129.096189 987.045898,129.591309 L987.045898,131.489258 C987.045898,131.844728 987.09139,132.088053 987.182373,132.219238 C987.273357,132.350424 987.513507,132.416016 987.902832,132.416016 L987.902832,133 Z M999.170898,131.660645 C999.170898,131.982261 999.105307,132.256265 998.974121,132.482666 C998.842936,132.709067 998.666261,132.87622 998.444092,132.984131 C998.221923,133.092042 997.971193,133.145996 997.691895,133.145996 C997.336424,133.145996 997.040203,133.062419 996.803223,132.895264 C996.566242,132.728108 996.424479,132.528159 996.37793,132.29541 C995.67122,132.86247 994.96029,133.145996 994.245117,133.145996 C993.788084,133.145996 993.413576,133.034913 993.121582,132.812744 C992.829588,132.590575 992.683594,132.297528 992.683594,131.933594 C992.683594,131.633137 992.761881,131.361248 992.918457,131.11792 C993.075033,130.874592 993.304605,130.657716 993.607178,130.467285 C993.909751,130.276855 994.270506,130.108643 994.689453,129.962646 C995.108401,129.81665 995.631019,129.66325 996.257324,129.502441 L996.257324,129.140625 C996.257324,128.840168 996.186443,128.604249 996.044678,128.432861 C995.902913,128.261474 995.641603,128.175781 995.260742,128.175781 C994.934894,128.175781 994.700033,128.243489 994.556152,128.378906 C994.412271,128.514324 994.317058,128.719562 994.270508,128.994629 C994.236653,129.189291 994.174235,129.349039 994.083252,129.473877 C993.992268,129.598715 993.802899,129.661133 993.515137,129.661133 C993.337401,129.661133 993.180827,129.610352 993.04541,129.508789 C992.909993,129.407226 992.842285,129.257 992.842285,129.058105 C992.842285,128.664549 993.055987,128.321779 993.483398,128.029785 C993.910809,127.737792 994.566727,127.591797 995.451172,127.591797 C996.382166,127.591797 997.022215,127.748371 997.371338,128.061523 C997.720461,128.374676 997.89502,128.793617 997.89502,129.318359 L997.89502,131.324219 C997.89502,131.578126 997.901367,131.764322 997.914062,131.882812 C997.926758,132.001303 997.96167,132.091227 998.018799,132.152588 C998.075928,132.213949 998.165852,132.244629 998.288574,132.244629 C998.398601,132.244629 998.494873,132.187501 998.577393,132.073242 C998.659913,131.958984 998.701172,131.821453 998.701172,131.660645 L999.170898,131.660645 Z M996.257324,131.711426 L996.257324,130.137207 C995.453284,130.391115 994.942303,130.639729 994.724365,130.883057 C994.506428,131.126385 994.397461,131.364419 994.397461,131.597168 C994.397461,131.79183 994.456705,131.948404 994.575195,132.066895 C994.693685,132.185385 994.860839,132.244629 995.07666,132.244629 C995.309409,132.244629 995.514648,132.195964 995.692383,132.098633 C995.870118,132.001302 996.05843,131.872234 996.257324,131.711426 Z M1010.66113,133 L1007.37305,133 L1007.37305,132.416016 C1007.62272,132.416016 1007.80151,132.38322 1007.90942,132.317627 C1008.01733,132.252034 1008.08398,132.155762 1008.10938,132.028809 C1008.13477,131.901855 1008.14746,131.692384 1008.14746,131.400391 L1008.14746,129.604004 C1008.14746,129.244302 1008.09456,128.959718 1007.98877,128.750244 C1007.88297,128.54077 1007.66716,128.436035 1007.34131,128.436035 C1006.89697,128.436035 1006.56584,128.606362 1006.3479,128.947021 C1006.12996,129.287681 1006.021,129.680174 1006.021,130.124512 L1006.021,131.546387 C1006.021,131.880698 1006.06966,132.109212 1006.16699,132.231934 C1006.26432,132.354656 1006.47379,132.416016 1006.79541,132.416016 L1006.79541,133 L1003.44385,133 L1003.44385,132.416016 C1003.71891,132.416016 1003.92204,132.391683 1004.05322,132.343018 C1004.18441,132.294352 1004.27116,132.207602 1004.31348,132.082764 C1004.35579,131.957926 1004.37695,131.760092 1004.37695,131.489258 L1004.37695,129.438965 C1004.37695,129.142739 1004.31982,128.949138 1004.20557,128.858154 C1004.09131,128.767171 1003.8374,128.72168 1003.44385,128.72168 L1003.44385,128.137695 L1005.91309,127.591797 C1005.95117,127.837241 1005.97021,128.065754 1005.97021,128.277344 C1005.97021,128.332357 1005.96916,128.379964 1005.96704,128.420166 C1005.96493,128.460368 1005.96387,128.505859 1005.96387,128.556641 C1006.23047,128.273111 1006.50765,128.041423 1006.79541,127.861572 C1007.08317,127.681721 1007.44287,127.591797 1007.87451,127.591797 C1008.23845,127.591797 1008.56535,127.657389 1008.85522,127.788574 C1009.1451,127.91976 1009.37256,128.118651 1009.5376,128.385254 C1009.70264,128.651857 1009.78516,128.973468 1009.78516,129.350098 L1009.78516,131.489258 C1009.78516,131.844728 1009.83276,132.088053 1009.92798,132.219238 C1010.02319,132.350424 1010.26758,132.416016 1010.66113,132.416016 L1010.66113,133 Z M1030.18213,130.124512 L1030.125,133 L1022.45703,133 L1022.45703,132.416016 C1022.98601,132.416016 1023.32666,132.339845 1023.479,132.1875 C1023.63135,132.035155 1023.70752,131.772788 1023.70752,131.400391 L1023.70752,125.992188 C1023.70752,125.742512 1023.68213,125.54891 1023.63135,125.411377 C1023.58057,125.273844 1023.46314,125.166993 1023.27905,125.09082 C1023.09497,125.014648 1022.82097,124.976562 1022.45703,124.976562 L1022.45703,124.392578 L1026.78613,124.392578 L1026.78613,124.976562 C1026.42643,124.976562 1026.15454,125.012532 1025.97046,125.084473 C1025.78638,125.156413 1025.66577,125.261148 1025.60864,125.398682 C1025.55151,125.536215 1025.52295,125.734048 1025.52295,125.992188 L1025.52295,130.943359 C1025.52295,131.332684 1025.54199,131.611978 1025.58008,131.78125 C1025.61816,131.950522 1025.72184,132.078531 1025.89111,132.165283 C1026.06038,132.252035 1026.33756,132.29541 1026.72266,132.29541 C1027.20931,132.29541 1027.63566,132.258383 1028.00171,132.184326 C1028.36776,132.11027 1028.7063,131.913494 1029.01733,131.593994 C1029.32837,131.274494 1029.52197,130.784671 1029.59814,130.124512 L1030.18213,130.124512 Z M1039.17139,131.870117 C1038.94287,132.34831 1038.67627,132.69108 1038.37158,132.898438 C1038.06689,133.105795 1037.70931,133.209473 1037.29883,133.209473 C1036.79948,133.209473 1036.43132,133.107911 1036.19434,132.904785 C1035.95736,132.701659 1035.81136,132.474204 1035.75635,132.222412 C1035.70133,131.97062 1035.67383,131.688153 1035.67383,131.375 L1035.67383,128.385254 L1034.71533,128.385254 L1034.71533,127.80127 C1035.11735,127.80127 1035.46647,127.725098 1035.7627,127.572754 C1036.05892,127.420409 1036.29272,127.215171 1036.46411,126.957031 C1036.6355,126.698892 1036.74447,126.421714 1036.79102,126.125488 L1037.31152,126.125488 L1037.31152,127.80127 L1039.10791,127.80127 L1039.10791,128.385254 L1037.31152,128.385254 L1037.31152,131.413086 C1037.31152,131.781252 1037.33586,132.046793 1037.38452,132.209717 C1037.43319,132.372641 1037.55273,132.454102 1037.74316,132.454102 C1037.94629,132.454102 1038.11344,132.374757 1038.24463,132.216064 C1038.37581,132.057372 1038.50277,131.859539 1038.62549,131.622559 L1039.17139,131.870117 Z M1050.97266,132.923828 C1050.07552,132.961914 1049.25668,133.057128 1048.51611,133.209473 C1048.45687,133.082519 1048.41878,132.860353 1048.40186,132.542969 C1047.86019,132.987307 1047.26563,133.209473 1046.61816,133.209473 C1046.11881,133.209473 1045.6565,133.080405 1045.2312,132.822266 C1044.80591,132.564126 1044.46737,132.211835 1044.21558,131.765381 C1043.96378,131.318927 1043.83789,130.833336 1043.83789,130.308594 C1043.83789,129.982746 1043.8929,129.659019 1044.00293,129.337402 C1044.11296,129.015786 1044.2854,128.720623 1044.52026,128.451904 C1044.75513,128.183186 1045.04606,127.972657 1045.39307,127.820312 C1045.74007,127.667968 1046.13574,127.591797 1046.58008,127.591797 C1046.90593,127.591797 1047.18522,127.631998 1047.41797,127.712402 C1047.65072,127.792806 1047.83691,127.884846 1047.97656,127.988525 C1048.11621,128.092204 1048.25797,128.215982 1048.40186,128.359863 L1048.40186,126.277832 C1048.40186,125.994302 1048.37858,125.791179 1048.33203,125.668457 C1048.28548,125.545735 1048.19767,125.467448 1048.0686,125.433594 C1047.93953,125.399739 1047.72901,125.378581 1047.43701,125.370117 L1047.43701,124.786133 L1050.03955,124.240234 L1050.03955,131.349609 C1050.03955,131.654298 1050.0533,131.865885 1050.08081,131.984375 C1050.10832,132.102865 1050.18555,132.188558 1050.3125,132.241455 C1050.43945,132.294352 1050.6595,132.327148 1050.97266,132.339844 L1050.97266,132.923828 Z M1048.40186,131.724121 L1048.40186,129.15332 C1048.22412,128.937499 1048.01253,128.740724 1047.76709,128.562988 C1047.52165,128.385253 1047.22966,128.296387 1046.89111,128.296387 C1046.68376,128.296387 1046.4891,128.353515 1046.30713,128.467773 C1046.12516,128.582032 1045.97917,128.728026 1045.86914,128.905762 C1045.68294,129.197755 1045.58984,129.690752 1045.58984,130.384766 C1045.58984,131.087243 1045.72209,131.616209 1045.98657,131.97168 C1046.25106,132.32715 1046.58008,132.504883 1046.97363,132.504883 C1047.25716,132.504883 1047.52165,132.435059 1047.76709,132.29541 C1048.01253,132.155761 1048.22412,131.965333 1048.40186,131.724121 Z M1057.9624,132.219238 C1057.9624,132.498537 1057.86507,132.733397 1057.67041,132.923828 C1057.47575,133.114259 1057.24089,133.209473 1056.96582,133.209473 C1056.69499,133.209473 1056.46224,133.114259 1056.26758,132.923828 C1056.07292,132.733397 1055.97559,132.498537 1055.97559,132.219238 C1055.97559,131.93994 1056.0708,131.702963 1056.26123,131.508301 C1056.45166,131.313638 1056.68652,131.216309 1056.96582,131.216309 C1057.24512,131.216309 1057.48104,131.31258 1057.67358,131.505127 C1057.86613,131.697673 1057.9624,131.935708 1057.9624,132.219238 Z" id="ByDPAbhushanLtd."></path>
        </g>
    </g>
</svg>