<svg width="92" height="50" xmlns="http://www.w3.org/2000/svg" xmlns:xlink="http://www.w3.org/1999/xlink" xmlns:svgjs="http://svgjs.com/svgjs" viewBox="374 1924 92 50"><svg width="92" height="30" xmlns="http://www.w3.org/2000/svg" xmlns:xlink="http://www.w3.org/1999/xlink" xmlns:svgjs="http://svgjs.com/svgjs" viewBox="374 1935 92 30" x="374" y="1935"><svg width="15" height="30" xmlns="http://www.w3.org/2000/svg" xmlns:xlink="http://www.w3.org/1999/xlink" xmlns:svgjs="http://svgjs.com/svgjs" viewBox="374 1935 15 30" x="374" y="1935"><svg width="11" height="10" xmlns="http://www.w3.org/2000/svg" xmlns:xlink="http://www.w3.org/1999/xlink" xmlns:svgjs="http://svgjs.com/svgjs" viewBox="0 0.662 11 8.676" fill="#d8d8d8" x="377" y="1935"><svg xmlns="http://www.w3.org/2000/svg" xmlns:xlink="http://www.w3.org/1999/xlink" width="11" height="10" viewBox="0.113 0.767 10.467 8.255"><path paint-order="stroke fill markers" fill-rule="evenodd" d="M.113.767s7.118.26 10.467 8.255C2.924 6.655.113.767.113.767z"/></svg></svg><svg width="14" height="6" xmlns="http://www.w3.org/2000/svg" xmlns:xlink="http://www.w3.org/1999/xlink" xmlns:svgjs="http://svgjs.com/svgjs" viewBox="0 0.611 14 4.779" fill="#d8d8d8" x="374" y="1946"><svg xmlns="http://www.w3.org/2000/svg" xmlns:xlink="http://www.w3.org/1999/xlink" width="14" height="6" viewBox="0 0.673 13.165 4.494"><path paint-order="stroke fill markers" fill-rule="evenodd" d="M0 1.86S3.069 4.785 5.742 5.08c4.443.49 4.693-1.246 7.423-1.835C11.022 1.854 8.172.906 5.742.689 3.814.516 0 1.859 0 1.859z"/></svg></svg><svg width="14" height="9" xmlns="http://www.w3.org/2000/svg" xmlns:xlink="http://www.w3.org/1999/xlink" xmlns:svgjs="http://svgjs.com/svgjs" viewBox="0.049 0 13.902 9" fill="#d8d8d8" x="375" y="1956"><svg xmlns="http://www.w3.org/2000/svg" xmlns:xlink="http://www.w3.org/1999/xlink" width="14" height="9" viewBox="0.808 0.545 12.366 8.006"><path paint-order="stroke fill markers" fill-rule="evenodd" d="M.838 8.152S5.818 11.18 13.174.545C-.408 2.623.838 8.152.838 8.152z"/></svg></svg></svg><svg width="15" height="30" xmlns="http://www.w3.org/2000/svg" xmlns:xlink="http://www.w3.org/1999/xlink" xmlns:svgjs="http://svgjs.com/svgjs" viewBox="451 1935 15 30" x="451" y="1935"><svg width="11" height="10" xmlns="http://www.w3.org/2000/svg" xmlns:xlink="http://www.w3.org/1999/xlink" xmlns:svgjs="http://svgjs.com/svgjs" viewBox="0 0.662 11 8.676" fill="#d8d8d8" x="452" y="1935"><svg xmlns="http://www.w3.org/2000/svg" xmlns:xlink="http://www.w3.org/1999/xlink" width="11" height="10" viewBox="0.42 0.767 10.467 8.255"><path paint-order="stroke fill markers" fill-rule="evenodd" d="M10.887.767S3.769 1.027.42 9.022C8.075 6.655 10.887.767 10.887.767z"/></svg></svg><svg width="14" height="6" xmlns="http://www.w3.org/2000/svg" xmlns:xlink="http://www.w3.org/1999/xlink" xmlns:svgjs="http://svgjs.com/svgjs" viewBox="0 0.611 14 4.779" fill="#d8d8d8" x="452" y="1946"><svg xmlns="http://www.w3.org/2000/svg" xmlns:xlink="http://www.w3.org/1999/xlink" width="14" height="6" viewBox="0.835 0.673 13.165 4.494"><path paint-order="stroke fill markers" fill-rule="evenodd" d="M14 1.86S10.931 4.785 8.258 5.08c-4.443.49-4.693-1.246-7.423-1.835C2.978 1.854 5.828.906 8.258.689 10.186.516 14 1.859 14 1.859z"/></svg></svg><svg width="14" height="9" xmlns="http://www.w3.org/2000/svg" xmlns:xlink="http://www.w3.org/1999/xlink" xmlns:svgjs="http://svgjs.com/svgjs" viewBox="0.049 0 13.902 9" fill="#d8d8d8" x="451" y="1956"><svg xmlns="http://www.w3.org/2000/svg" xmlns:xlink="http://www.w3.org/1999/xlink" width="14" height="9" viewBox="0.826 0.545 12.366 8.006"><path paint-order="stroke fill markers" fill-rule="evenodd" d="M13.161 8.152S8.182 11.18.826.545C14.408 2.623 13.16 8.152 13.16 8.152z"/></svg></svg></svg></svg><svg width="50" height="50" xmlns="http://www.w3.org/2000/svg" xmlns:xlink="http://www.w3.org/1999/xlink" xmlns:svgjs="http://svgjs.com/svgjs" viewBox="396 1924 50 50" x="396" y="1924"><svg width="50" height="42" xmlns="http://www.w3.org/2000/svg" xmlns:xlink="http://www.w3.org/1999/xlink" xmlns:svgjs="http://svgjs.com/svgjs" viewBox="0 0.202 50 41.596" fill="#f82a4f" x="396" y="1932"><svg xmlns="http://www.w3.org/2000/svg" xmlns:xlink="http://www.w3.org/1999/xlink" width="50" height="42" viewBox="0 0.398 50 41.596"><path paint-order="stroke fill markers" fill-rule="evenodd" d="M49.84 13.049L41.833.839a.976.976 0 0 0-.816-.44H9.02a.976.976 0 0 0-.815.44L.186 13.01a.977.977 0 0 0 .056 1.217l4.065 4.641a.977.977 0 0 0 1.469-1.287L3.13 14.561h13.135l6.6 22.534-7.459-8.516a.976.976 0 0 0-1.469 1.286l10.331 11.796a.977.977 0 0 0 1.47 0l10.998-12.562a.976.976 0 1 0-1.469-1.286l-8.126 9.28 6.6-22.532h13.13l-6.073 6.935a.976.976 0 1 0 1.47 1.287l7.49-8.555a.976.976 0 0 0 .082-1.18zm-47.05-.441l6.23-9.455 6.2 9.455H2.79zm8.04-10.256h12.365l-6.183 9.427-6.183-9.427zm14.173.804l6.199 9.452H18.804l6.199-9.452zm0 34.29L18.3 14.562h13.406l-6.703 22.886zm8.007-25.642L26.81 2.352h12.398l-6.2 9.452zm1.808.804l6.199-9.452 6.198 9.452H34.818z"/></svg></svg><svg width="14" height="14" xmlns="http://www.w3.org/2000/svg" xmlns:xlink="http://www.w3.org/1999/xlink" xmlns:svgjs="http://svgjs.com/svgjs" fill="#b42a41" x="399" y="1950"><svg xmlns="http://www.w3.org/2000/svg" xmlns:xlink="http://www.w3.org/1999/xlink" width="14" height="14" viewBox="0.285 0.388 13.042 13.042"><path paint-order="stroke fill markers" fill-rule="evenodd" d="M12.35 5.932a4.573 4.573 0 0 1-4.568-4.568.976.976 0 0 0-1.953 0 4.573 4.573 0 0 1-4.568 4.568.977.977 0 0 0 0 1.953 4.573 4.573 0 0 1 4.568 4.569.976.976 0 0 0 1.953 0 4.573 4.573 0 0 1 4.568-4.569.977.977 0 0 0 0-1.953zM6.806 9.024A6.573 6.573 0 0 0 4.69 6.91a6.571 6.571 0 0 0 2.115-2.115A6.571 6.571 0 0 0 8.92 6.909a6.57 6.57 0 0 0-2.115 2.115z"/></svg></svg><svg width="10" height="10" xmlns="http://www.w3.org/2000/svg" xmlns:xlink="http://www.w3.org/1999/xlink" xmlns:svgjs="http://svgjs.com/svgjs" fill="#b42a41" x="436" y="1924"><svg xmlns="http://www.w3.org/2000/svg" xmlns:xlink="http://www.w3.org/1999/xlink" width="10" height="10" viewBox="0.235 0 9.765 9.765"><path paint-order="stroke fill markers" fill-rule="evenodd" d="M9.023 3.906A2.933 2.933 0 0 1 6.094.976a.977.977 0 0 0-1.953 0 2.933 2.933 0 0 1-2.93 2.93.976.976 0 1 0 0 1.952 2.933 2.933 0 0 1 2.93 2.93.977.977 0 0 0 1.953 0 2.933 2.933 0 0 1 2.93-2.93.976.976 0 1 0 0-1.952zM5.118 5.862a4.922 4.922 0 0 0-.98-.98c.371-.278.701-.608.98-.98.278.372.608.702.98.98a4.92 4.92 0 0 0-.98.98z"/></svg></svg><svg width="3" height="3" xmlns="http://www.w3.org/2000/svg" xmlns:xlink="http://www.w3.org/1999/xlink" xmlns:svgjs="http://svgjs.com/svgjs" fill="#b42a41" x="433" y="1956"><svg xmlns="http://www.w3.org/2000/svg" width="3" height="3" viewBox="0.668 0.462 1.953 1.953"><path paint-order="stroke fill markers" fill-rule="evenodd" d="M2.334.748a.979.979 0 0 0-1.38 0 .984.984 0 0 0-.286.69c0 .257.104.51.286.69a.983.983 0 0 0 .69.287.983.983 0 0 0 .69-.286.983.983 0 0 0 .286-.69.983.983 0 0 0-.286-.69z"/></svg></svg></svg></svg>