<svg width="26" height="25" xmlns="http://www.w3.org/2000/svg" xmlns:xlink="http://www.w3.org/1999/xlink" xmlns:svgjs="http://svgjs.com/svgjs" viewBox="0 0.186 26 24.629" fill="#fff"><svg xmlns="http://www.w3.org/2000/svg" width="26" height="25" viewBox="0 0 25.336 24"><path paint-order="stroke fill markers" fill-rule="evenodd" d="M15.524 19.67c2.119-.4 3.608-1.935 4.468-4.607.43-1.32.645-2.626.645-3.916 0-.153-.008-.283-.023-.391a16.191 16.191 0 0 1-.069-.714h-5.021V0h9.812v9.26c0 4.544-.906 8.045-2.718 10.502-1.812 2.457-4.177 3.87-7.094 4.238v-4.33zM0 19.67c1.689-.277 2.971-1.229 3.846-2.856.876-1.628 1.313-3.501 1.313-5.62 0-.185-.007-.369-.023-.553a3.143 3.143 0 0 0-.115-.599H0V0h9.858v9.26c0 3.653-.768 6.916-2.303 9.788C6.019 21.919 3.5 23.57 0 24v-4.33z"/></svg></svg>